<mxfile host="app.diagrams.net" agent="Mozilla/5.0 (Windows NT 10.0; Win64; x64) AppleWebKit/537.36 (KHTML, like Gecko) Chrome/129.0.0.0 Safari/537.36 Edg/129.0.0.0" version="24.7.17">
  <diagram name="Restaurant" id="wvzFyD5nuLO41uPbBPJK">
    <mxGraphModel dx="1095" dy="1643" grid="0" gridSize="10" guides="1" tooltips="1" connect="1" arrows="1" fold="1" page="1" pageScale="1" pageWidth="850" pageHeight="1100" background="none" math="0" shadow="0">
      <root>
        <object label="" id="0">
          <mxCell />
        </object>
        <mxCell id="1" parent="0" />
        <mxCell id="zdyOHas0w8yIAXeVmpGB-128" value="Services" style="shape=table;startSize=30;container=1;collapsible=1;childLayout=tableLayout;fixedRows=1;rowLines=0;fontStyle=1;align=center;resizeLast=1;html=1;" parent="1" vertex="1">
          <mxGeometry x="575" y="294" width="189" height="176" as="geometry" />
        </mxCell>
        <mxCell id="zdyOHas0w8yIAXeVmpGB-129" value="" style="shape=tableRow;horizontal=0;startSize=0;swimlaneHead=0;swimlaneBody=0;fillColor=none;collapsible=0;dropTarget=0;points=[[0,0.5],[1,0.5]];portConstraint=eastwest;top=0;left=0;right=0;bottom=1;" parent="zdyOHas0w8yIAXeVmpGB-128" vertex="1">
          <mxGeometry y="30" width="189" height="30" as="geometry" />
        </mxCell>
        <mxCell id="zdyOHas0w8yIAXeVmpGB-130" value="PK" style="shape=partialRectangle;connectable=0;fillColor=none;top=0;left=0;bottom=0;right=0;fontStyle=1;overflow=hidden;whiteSpace=wrap;html=1;" parent="zdyOHas0w8yIAXeVmpGB-129" vertex="1">
          <mxGeometry width="39.95001220703125" height="30" as="geometry">
            <mxRectangle width="39.95001220703125" height="30" as="alternateBounds" />
          </mxGeometry>
        </mxCell>
        <mxCell id="zdyOHas0w8yIAXeVmpGB-131" value="ServiceID PK INT AI" style="shape=partialRectangle;connectable=0;fillColor=none;top=0;left=0;bottom=0;right=0;align=left;spacingLeft=6;fontStyle=1;overflow=hidden;whiteSpace=wrap;html=1;" parent="zdyOHas0w8yIAXeVmpGB-129" vertex="1">
          <mxGeometry x="39.95001220703125" width="149.04998779296875" height="30" as="geometry">
            <mxRectangle width="149.04998779296875" height="30" as="alternateBounds" />
          </mxGeometry>
        </mxCell>
        <mxCell id="zdyOHas0w8yIAXeVmpGB-132" value="" style="shape=tableRow;horizontal=0;startSize=0;swimlaneHead=0;swimlaneBody=0;fillColor=none;collapsible=0;dropTarget=0;points=[[0,0.5],[1,0.5]];portConstraint=eastwest;top=0;left=0;right=0;bottom=0;" parent="zdyOHas0w8yIAXeVmpGB-128" vertex="1">
          <mxGeometry y="60" width="189" height="30" as="geometry" />
        </mxCell>
        <mxCell id="zdyOHas0w8yIAXeVmpGB-133" value="1" style="shape=partialRectangle;connectable=0;fillColor=none;top=0;left=0;bottom=0;right=0;editable=1;overflow=hidden;whiteSpace=wrap;html=1;" parent="zdyOHas0w8yIAXeVmpGB-132" vertex="1">
          <mxGeometry width="39.95001220703125" height="30" as="geometry">
            <mxRectangle width="39.95001220703125" height="30" as="alternateBounds" />
          </mxGeometry>
        </mxCell>
        <mxCell id="zdyOHas0w8yIAXeVmpGB-134" value="Dine-In BOOLEAN" style="shape=partialRectangle;connectable=0;fillColor=none;top=0;left=0;bottom=0;right=0;align=left;spacingLeft=6;overflow=hidden;whiteSpace=wrap;html=1;" parent="zdyOHas0w8yIAXeVmpGB-132" vertex="1">
          <mxGeometry x="39.95001220703125" width="149.04998779296875" height="30" as="geometry">
            <mxRectangle width="149.04998779296875" height="30" as="alternateBounds" />
          </mxGeometry>
        </mxCell>
        <mxCell id="zdyOHas0w8yIAXeVmpGB-135" value="" style="shape=tableRow;horizontal=0;startSize=0;swimlaneHead=0;swimlaneBody=0;fillColor=none;collapsible=0;dropTarget=0;points=[[0,0.5],[1,0.5]];portConstraint=eastwest;top=0;left=0;right=0;bottom=0;" parent="zdyOHas0w8yIAXeVmpGB-128" vertex="1">
          <mxGeometry y="90" width="189" height="30" as="geometry" />
        </mxCell>
        <mxCell id="zdyOHas0w8yIAXeVmpGB-136" value="2" style="shape=partialRectangle;connectable=0;fillColor=none;top=0;left=0;bottom=0;right=0;editable=1;overflow=hidden;whiteSpace=wrap;html=1;" parent="zdyOHas0w8yIAXeVmpGB-135" vertex="1">
          <mxGeometry width="39.95001220703125" height="30" as="geometry">
            <mxRectangle width="39.95001220703125" height="30" as="alternateBounds" />
          </mxGeometry>
        </mxCell>
        <mxCell id="zdyOHas0w8yIAXeVmpGB-137" value="Carry-Out BOOLEAN" style="shape=partialRectangle;connectable=0;fillColor=none;top=0;left=0;bottom=0;right=0;align=left;spacingLeft=6;overflow=hidden;whiteSpace=wrap;html=1;" parent="zdyOHas0w8yIAXeVmpGB-135" vertex="1">
          <mxGeometry x="39.95001220703125" width="149.04998779296875" height="30" as="geometry">
            <mxRectangle width="149.04998779296875" height="30" as="alternateBounds" />
          </mxGeometry>
        </mxCell>
        <mxCell id="zdyOHas0w8yIAXeVmpGB-138" value="" style="shape=tableRow;horizontal=0;startSize=0;swimlaneHead=0;swimlaneBody=0;fillColor=none;collapsible=0;dropTarget=0;points=[[0,0.5],[1,0.5]];portConstraint=eastwest;top=0;left=0;right=0;bottom=0;" parent="zdyOHas0w8yIAXeVmpGB-128" vertex="1">
          <mxGeometry y="120" width="189" height="26" as="geometry" />
        </mxCell>
        <mxCell id="zdyOHas0w8yIAXeVmpGB-139" value="3" style="shape=partialRectangle;connectable=0;fillColor=none;top=0;left=0;bottom=0;right=0;editable=1;overflow=hidden;whiteSpace=wrap;html=1;" parent="zdyOHas0w8yIAXeVmpGB-138" vertex="1">
          <mxGeometry width="39.95001220703125" height="26" as="geometry">
            <mxRectangle width="39.95001220703125" height="26" as="alternateBounds" />
          </mxGeometry>
        </mxCell>
        <mxCell id="zdyOHas0w8yIAXeVmpGB-140" value="Reservation BOOLEAN" style="shape=partialRectangle;connectable=0;fillColor=none;top=0;left=0;bottom=0;right=0;align=left;spacingLeft=6;overflow=hidden;whiteSpace=wrap;html=1;" parent="zdyOHas0w8yIAXeVmpGB-138" vertex="1">
          <mxGeometry x="39.95001220703125" width="149.04998779296875" height="26" as="geometry">
            <mxRectangle width="149.04998779296875" height="26" as="alternateBounds" />
          </mxGeometry>
        </mxCell>
        <mxCell id="zdyOHas0w8yIAXeVmpGB-161" style="shape=tableRow;horizontal=0;startSize=0;swimlaneHead=0;swimlaneBody=0;fillColor=none;collapsible=0;dropTarget=0;points=[[0,0.5],[1,0.5]];portConstraint=eastwest;top=0;left=0;right=0;bottom=0;" parent="zdyOHas0w8yIAXeVmpGB-128" vertex="1">
          <mxGeometry y="146" width="189" height="30" as="geometry" />
        </mxCell>
        <mxCell id="zdyOHas0w8yIAXeVmpGB-162" value="4" style="shape=partialRectangle;connectable=0;fillColor=none;top=0;left=0;bottom=0;right=0;editable=1;overflow=hidden;whiteSpace=wrap;html=1;" parent="zdyOHas0w8yIAXeVmpGB-161" vertex="1">
          <mxGeometry width="39.95001220703125" height="30" as="geometry">
            <mxRectangle width="39.95001220703125" height="30" as="alternateBounds" />
          </mxGeometry>
        </mxCell>
        <mxCell id="zdyOHas0w8yIAXeVmpGB-163" value="Self-Service BOOLEAN" style="shape=partialRectangle;connectable=0;fillColor=none;top=0;left=0;bottom=0;right=0;align=left;spacingLeft=6;overflow=hidden;whiteSpace=wrap;html=1;" parent="zdyOHas0w8yIAXeVmpGB-161" vertex="1">
          <mxGeometry x="39.95001220703125" width="149.04998779296875" height="30" as="geometry">
            <mxRectangle width="149.04998779296875" height="30" as="alternateBounds" />
          </mxGeometry>
        </mxCell>
        <mxCell id="zdyOHas0w8yIAXeVmpGB-164" value="Customers" style="shape=table;startSize=30;container=1;collapsible=1;childLayout=tableLayout;fixedRows=1;rowLines=0;fontStyle=1;align=center;resizeLast=1;html=1;" parent="1" vertex="1">
          <mxGeometry x="44" y="354" width="228" height="240" as="geometry" />
        </mxCell>
        <mxCell id="zdyOHas0w8yIAXeVmpGB-192" style="shape=tableRow;horizontal=0;startSize=0;swimlaneHead=0;swimlaneBody=0;fillColor=none;collapsible=0;dropTarget=0;points=[[0,0.5],[1,0.5]];portConstraint=eastwest;top=0;left=0;right=0;bottom=1;" parent="zdyOHas0w8yIAXeVmpGB-164" vertex="1">
          <mxGeometry y="30" width="228" height="30" as="geometry" />
        </mxCell>
        <mxCell id="zdyOHas0w8yIAXeVmpGB-193" value="PK" style="shape=partialRectangle;connectable=0;fillColor=none;top=0;left=0;bottom=0;right=0;fontStyle=1;overflow=hidden;whiteSpace=wrap;html=1;" parent="zdyOHas0w8yIAXeVmpGB-192" vertex="1">
          <mxGeometry width="38.937515258788835" height="30" as="geometry">
            <mxRectangle width="38.937515258788835" height="30" as="alternateBounds" />
          </mxGeometry>
        </mxCell>
        <mxCell id="zdyOHas0w8yIAXeVmpGB-194" value="CustomerID" style="shape=partialRectangle;connectable=0;fillColor=none;top=0;left=0;bottom=0;right=0;align=left;spacingLeft=6;fontStyle=1;overflow=hidden;whiteSpace=wrap;html=1;" parent="zdyOHas0w8yIAXeVmpGB-192" vertex="1">
          <mxGeometry x="38.937515258788835" width="189.06248474121116" height="30" as="geometry">
            <mxRectangle width="189.06248474121116" height="30" as="alternateBounds" />
          </mxGeometry>
        </mxCell>
        <mxCell id="zdyOHas0w8yIAXeVmpGB-165" value="" style="shape=tableRow;horizontal=0;startSize=0;swimlaneHead=0;swimlaneBody=0;fillColor=none;collapsible=0;dropTarget=0;points=[[0,0.5],[1,0.5]];portConstraint=eastwest;top=0;left=0;right=0;bottom=1;strokeColor=inherit;" parent="zdyOHas0w8yIAXeVmpGB-164" vertex="1">
          <mxGeometry y="60" width="228" height="30" as="geometry" />
        </mxCell>
        <mxCell id="zdyOHas0w8yIAXeVmpGB-166" value="&lt;div&gt;1&lt;/div&gt;" style="shape=partialRectangle;connectable=0;fillColor=none;top=0;left=0;bottom=0;right=0;fontStyle=1;overflow=hidden;whiteSpace=wrap;html=1;strokeColor=inherit;" parent="zdyOHas0w8yIAXeVmpGB-165" vertex="1">
          <mxGeometry width="38.937515258788835" height="30" as="geometry">
            <mxRectangle width="38.937515258788835" height="30" as="alternateBounds" />
          </mxGeometry>
        </mxCell>
        <mxCell id="zdyOHas0w8yIAXeVmpGB-167" value="CustomerName PK INT AI" style="shape=partialRectangle;connectable=0;fillColor=none;top=0;left=0;bottom=0;right=0;align=left;spacingLeft=6;fontStyle=1;overflow=hidden;whiteSpace=wrap;html=1;strokeColor=inherit;" parent="zdyOHas0w8yIAXeVmpGB-165" vertex="1">
          <mxGeometry x="38.937515258788835" width="189.06248474121116" height="30" as="geometry">
            <mxRectangle width="189.06248474121116" height="30" as="alternateBounds" />
          </mxGeometry>
        </mxCell>
        <mxCell id="zdyOHas0w8yIAXeVmpGB-168" value="" style="shape=tableRow;horizontal=0;startSize=0;swimlaneHead=0;swimlaneBody=0;fillColor=none;collapsible=0;dropTarget=0;points=[[0,0.5],[1,0.5]];portConstraint=eastwest;top=0;left=0;right=0;bottom=0;" parent="zdyOHas0w8yIAXeVmpGB-164" vertex="1">
          <mxGeometry y="90" width="228" height="30" as="geometry" />
        </mxCell>
        <mxCell id="zdyOHas0w8yIAXeVmpGB-169" value="2" style="shape=partialRectangle;connectable=0;fillColor=none;top=0;left=0;bottom=0;right=0;editable=1;overflow=hidden;whiteSpace=wrap;html=1;" parent="zdyOHas0w8yIAXeVmpGB-168" vertex="1">
          <mxGeometry width="38.937515258788835" height="30" as="geometry">
            <mxRectangle width="38.937515258788835" height="30" as="alternateBounds" />
          </mxGeometry>
        </mxCell>
        <mxCell id="zdyOHas0w8yIAXeVmpGB-170" value="Name VARCHAR NN" style="shape=partialRectangle;connectable=0;fillColor=none;top=0;left=0;bottom=0;right=0;align=left;spacingLeft=6;overflow=hidden;whiteSpace=wrap;html=1;" parent="zdyOHas0w8yIAXeVmpGB-168" vertex="1">
          <mxGeometry x="38.937515258788835" width="189.06248474121116" height="30" as="geometry">
            <mxRectangle width="189.06248474121116" height="30" as="alternateBounds" />
          </mxGeometry>
        </mxCell>
        <mxCell id="zdyOHas0w8yIAXeVmpGB-171" value="" style="shape=tableRow;horizontal=0;startSize=0;swimlaneHead=0;swimlaneBody=0;fillColor=none;collapsible=0;dropTarget=0;points=[[0,0.5],[1,0.5]];portConstraint=eastwest;top=0;left=0;right=0;bottom=0;" parent="zdyOHas0w8yIAXeVmpGB-164" vertex="1">
          <mxGeometry y="120" width="228" height="30" as="geometry" />
        </mxCell>
        <mxCell id="zdyOHas0w8yIAXeVmpGB-172" value="3" style="shape=partialRectangle;connectable=0;fillColor=none;top=0;left=0;bottom=0;right=0;editable=1;overflow=hidden;whiteSpace=wrap;html=1;" parent="zdyOHas0w8yIAXeVmpGB-171" vertex="1">
          <mxGeometry width="38.937515258788835" height="30" as="geometry">
            <mxRectangle width="38.937515258788835" height="30" as="alternateBounds" />
          </mxGeometry>
        </mxCell>
        <mxCell id="zdyOHas0w8yIAXeVmpGB-173" value="Number VARCHAR" style="shape=partialRectangle;connectable=0;fillColor=none;top=0;left=0;bottom=0;right=0;align=left;spacingLeft=6;overflow=hidden;whiteSpace=wrap;html=1;" parent="zdyOHas0w8yIAXeVmpGB-171" vertex="1">
          <mxGeometry x="38.937515258788835" width="189.06248474121116" height="30" as="geometry">
            <mxRectangle width="189.06248474121116" height="30" as="alternateBounds" />
          </mxGeometry>
        </mxCell>
        <mxCell id="zdyOHas0w8yIAXeVmpGB-174" value="" style="shape=tableRow;horizontal=0;startSize=0;swimlaneHead=0;swimlaneBody=0;fillColor=none;collapsible=0;dropTarget=0;points=[[0,0.5],[1,0.5]];portConstraint=eastwest;top=0;left=0;right=0;bottom=0;" parent="zdyOHas0w8yIAXeVmpGB-164" vertex="1">
          <mxGeometry y="150" width="228" height="30" as="geometry" />
        </mxCell>
        <mxCell id="zdyOHas0w8yIAXeVmpGB-175" value="4" style="shape=partialRectangle;connectable=0;fillColor=none;top=0;left=0;bottom=0;right=0;editable=1;overflow=hidden;whiteSpace=wrap;html=1;" parent="zdyOHas0w8yIAXeVmpGB-174" vertex="1">
          <mxGeometry width="38.937515258788835" height="30" as="geometry">
            <mxRectangle width="38.937515258788835" height="30" as="alternateBounds" />
          </mxGeometry>
        </mxCell>
        <mxCell id="zdyOHas0w8yIAXeVmpGB-176" value="Email VARCHAR" style="shape=partialRectangle;connectable=0;fillColor=none;top=0;left=0;bottom=0;right=0;align=left;spacingLeft=6;overflow=hidden;whiteSpace=wrap;html=1;" parent="zdyOHas0w8yIAXeVmpGB-174" vertex="1">
          <mxGeometry x="38.937515258788835" width="189.06248474121116" height="30" as="geometry">
            <mxRectangle width="189.06248474121116" height="30" as="alternateBounds" />
          </mxGeometry>
        </mxCell>
        <mxCell id="zdyOHas0w8yIAXeVmpGB-177" style="shape=tableRow;horizontal=0;startSize=0;swimlaneHead=0;swimlaneBody=0;fillColor=none;collapsible=0;dropTarget=0;points=[[0,0.5],[1,0.5]];portConstraint=eastwest;top=0;left=0;right=0;bottom=0;" parent="zdyOHas0w8yIAXeVmpGB-164" vertex="1">
          <mxGeometry y="180" width="228" height="30" as="geometry" />
        </mxCell>
        <mxCell id="zdyOHas0w8yIAXeVmpGB-178" value="5" style="shape=partialRectangle;connectable=0;fillColor=none;top=0;left=0;bottom=0;right=0;editable=1;overflow=hidden;whiteSpace=wrap;html=1;" parent="zdyOHas0w8yIAXeVmpGB-177" vertex="1">
          <mxGeometry width="38.937515258788835" height="30" as="geometry">
            <mxRectangle width="38.937515258788835" height="30" as="alternateBounds" />
          </mxGeometry>
        </mxCell>
        <mxCell id="zdyOHas0w8yIAXeVmpGB-179" value="MemberStatus BOOLEAN NN" style="shape=partialRectangle;connectable=0;fillColor=none;top=0;left=0;bottom=0;right=0;align=left;spacingLeft=6;overflow=hidden;whiteSpace=wrap;html=1;" parent="zdyOHas0w8yIAXeVmpGB-177" vertex="1">
          <mxGeometry x="38.937515258788835" width="189.06248474121116" height="30" as="geometry">
            <mxRectangle width="189.06248474121116" height="30" as="alternateBounds" />
          </mxGeometry>
        </mxCell>
        <mxCell id="zdyOHas0w8yIAXeVmpGB-183" style="shape=tableRow;horizontal=0;startSize=0;swimlaneHead=0;swimlaneBody=0;fillColor=none;collapsible=0;dropTarget=0;points=[[0,0.5],[1,0.5]];portConstraint=eastwest;top=0;left=0;right=0;bottom=0;" parent="zdyOHas0w8yIAXeVmpGB-164" vertex="1">
          <mxGeometry y="210" width="228" height="30" as="geometry" />
        </mxCell>
        <mxCell id="zdyOHas0w8yIAXeVmpGB-184" value="6" style="shape=partialRectangle;connectable=0;fillColor=none;top=0;left=0;bottom=0;right=0;editable=1;overflow=hidden;whiteSpace=wrap;html=1;" parent="zdyOHas0w8yIAXeVmpGB-183" vertex="1">
          <mxGeometry width="38.937515258788835" height="30" as="geometry">
            <mxRectangle width="38.937515258788835" height="30" as="alternateBounds" />
          </mxGeometry>
        </mxCell>
        <mxCell id="zdyOHas0w8yIAXeVmpGB-185" value="MemberID INT" style="shape=partialRectangle;connectable=0;fillColor=none;top=0;left=0;bottom=0;right=0;align=left;spacingLeft=6;overflow=hidden;whiteSpace=wrap;html=1;" parent="zdyOHas0w8yIAXeVmpGB-183" vertex="1">
          <mxGeometry x="38.937515258788835" width="189.06248474121116" height="30" as="geometry">
            <mxRectangle width="189.06248474121116" height="30" as="alternateBounds" />
          </mxGeometry>
        </mxCell>
        <mxCell id="zdyOHas0w8yIAXeVmpGB-195" value="Orders" style="shape=table;startSize=30;container=1;collapsible=1;childLayout=tableLayout;fixedRows=1;rowLines=0;fontStyle=1;align=center;resizeLast=1;html=1;" parent="1" vertex="1">
          <mxGeometry x="333" y="304" width="180" height="210" as="geometry" />
        </mxCell>
        <mxCell id="zdyOHas0w8yIAXeVmpGB-196" value="" style="shape=tableRow;horizontal=0;startSize=0;swimlaneHead=0;swimlaneBody=0;fillColor=none;collapsible=0;dropTarget=0;points=[[0,0.5],[1,0.5]];portConstraint=eastwest;top=0;left=0;right=0;bottom=1;" parent="zdyOHas0w8yIAXeVmpGB-195" vertex="1">
          <mxGeometry y="30" width="180" height="30" as="geometry" />
        </mxCell>
        <mxCell id="zdyOHas0w8yIAXeVmpGB-197" value="PK" style="shape=partialRectangle;connectable=0;fillColor=none;top=0;left=0;bottom=0;right=0;fontStyle=1;overflow=hidden;whiteSpace=wrap;html=1;" parent="zdyOHas0w8yIAXeVmpGB-196" vertex="1">
          <mxGeometry width="30" height="30" as="geometry">
            <mxRectangle width="30" height="30" as="alternateBounds" />
          </mxGeometry>
        </mxCell>
        <mxCell id="zdyOHas0w8yIAXeVmpGB-198" value="OrderID" style="shape=partialRectangle;connectable=0;fillColor=none;top=0;left=0;bottom=0;right=0;align=left;spacingLeft=6;fontStyle=5;overflow=hidden;whiteSpace=wrap;html=1;" parent="zdyOHas0w8yIAXeVmpGB-196" vertex="1">
          <mxGeometry x="30" width="150" height="30" as="geometry">
            <mxRectangle width="150" height="30" as="alternateBounds" />
          </mxGeometry>
        </mxCell>
        <mxCell id="zdyOHas0w8yIAXeVmpGB-199" value="" style="shape=tableRow;horizontal=0;startSize=0;swimlaneHead=0;swimlaneBody=0;fillColor=none;collapsible=0;dropTarget=0;points=[[0,0.5],[1,0.5]];portConstraint=eastwest;top=0;left=0;right=0;bottom=0;" parent="zdyOHas0w8yIAXeVmpGB-195" vertex="1">
          <mxGeometry y="60" width="180" height="30" as="geometry" />
        </mxCell>
        <mxCell id="zdyOHas0w8yIAXeVmpGB-200" value="1" style="shape=partialRectangle;connectable=0;fillColor=none;top=0;left=0;bottom=0;right=0;editable=1;overflow=hidden;whiteSpace=wrap;html=1;" parent="zdyOHas0w8yIAXeVmpGB-199" vertex="1">
          <mxGeometry width="30" height="30" as="geometry">
            <mxRectangle width="30" height="30" as="alternateBounds" />
          </mxGeometry>
        </mxCell>
        <mxCell id="zdyOHas0w8yIAXeVmpGB-201" value="Name VARCHAR NN" style="shape=partialRectangle;connectable=0;fillColor=none;top=0;left=0;bottom=0;right=0;align=left;spacingLeft=6;overflow=hidden;whiteSpace=wrap;html=1;" parent="zdyOHas0w8yIAXeVmpGB-199" vertex="1">
          <mxGeometry x="30" width="150" height="30" as="geometry">
            <mxRectangle width="150" height="30" as="alternateBounds" />
          </mxGeometry>
        </mxCell>
        <mxCell id="zdyOHas0w8yIAXeVmpGB-202" value="" style="shape=tableRow;horizontal=0;startSize=0;swimlaneHead=0;swimlaneBody=0;fillColor=none;collapsible=0;dropTarget=0;points=[[0,0.5],[1,0.5]];portConstraint=eastwest;top=0;left=0;right=0;bottom=0;" parent="zdyOHas0w8yIAXeVmpGB-195" vertex="1">
          <mxGeometry y="90" width="180" height="30" as="geometry" />
        </mxCell>
        <mxCell id="zdyOHas0w8yIAXeVmpGB-203" value="2" style="shape=partialRectangle;connectable=0;fillColor=none;top=0;left=0;bottom=0;right=0;editable=1;overflow=hidden;whiteSpace=wrap;html=1;" parent="zdyOHas0w8yIAXeVmpGB-202" vertex="1">
          <mxGeometry width="30" height="30" as="geometry">
            <mxRectangle width="30" height="30" as="alternateBounds" />
          </mxGeometry>
        </mxCell>
        <mxCell id="zdyOHas0w8yIAXeVmpGB-204" value="Type VARCHAR" style="shape=partialRectangle;connectable=0;fillColor=none;top=0;left=0;bottom=0;right=0;align=left;spacingLeft=6;overflow=hidden;whiteSpace=wrap;html=1;" parent="zdyOHas0w8yIAXeVmpGB-202" vertex="1">
          <mxGeometry x="30" width="150" height="30" as="geometry">
            <mxRectangle width="150" height="30" as="alternateBounds" />
          </mxGeometry>
        </mxCell>
        <mxCell id="zdyOHas0w8yIAXeVmpGB-205" value="" style="shape=tableRow;horizontal=0;startSize=0;swimlaneHead=0;swimlaneBody=0;fillColor=none;collapsible=0;dropTarget=0;points=[[0,0.5],[1,0.5]];portConstraint=eastwest;top=0;left=0;right=0;bottom=0;" parent="zdyOHas0w8yIAXeVmpGB-195" vertex="1">
          <mxGeometry y="120" width="180" height="30" as="geometry" />
        </mxCell>
        <mxCell id="zdyOHas0w8yIAXeVmpGB-206" value="3" style="shape=partialRectangle;connectable=0;fillColor=none;top=0;left=0;bottom=0;right=0;editable=1;overflow=hidden;whiteSpace=wrap;html=1;" parent="zdyOHas0w8yIAXeVmpGB-205" vertex="1">
          <mxGeometry width="30" height="30" as="geometry">
            <mxRectangle width="30" height="30" as="alternateBounds" />
          </mxGeometry>
        </mxCell>
        <mxCell id="zdyOHas0w8yIAXeVmpGB-207" value="Date DATETIME" style="shape=partialRectangle;connectable=0;fillColor=none;top=0;left=0;bottom=0;right=0;align=left;spacingLeft=6;overflow=hidden;whiteSpace=wrap;html=1;" parent="zdyOHas0w8yIAXeVmpGB-205" vertex="1">
          <mxGeometry x="30" width="150" height="30" as="geometry">
            <mxRectangle width="150" height="30" as="alternateBounds" />
          </mxGeometry>
        </mxCell>
        <mxCell id="6rqnXp5KOdtHk6Dp94yl-1" style="shape=tableRow;horizontal=0;startSize=0;swimlaneHead=0;swimlaneBody=0;fillColor=none;collapsible=0;dropTarget=0;points=[[0,0.5],[1,0.5]];portConstraint=eastwest;top=0;left=0;right=0;bottom=0;" vertex="1" parent="zdyOHas0w8yIAXeVmpGB-195">
          <mxGeometry y="150" width="180" height="30" as="geometry" />
        </mxCell>
        <mxCell id="6rqnXp5KOdtHk6Dp94yl-2" value="4" style="shape=partialRectangle;connectable=0;fillColor=none;top=0;left=0;bottom=0;right=0;editable=1;overflow=hidden;whiteSpace=wrap;html=1;" vertex="1" parent="6rqnXp5KOdtHk6Dp94yl-1">
          <mxGeometry width="30" height="30" as="geometry">
            <mxRectangle width="30" height="30" as="alternateBounds" />
          </mxGeometry>
        </mxCell>
        <mxCell id="6rqnXp5KOdtHk6Dp94yl-3" value="Items VARCHAR" style="shape=partialRectangle;connectable=0;fillColor=none;top=0;left=0;bottom=0;right=0;align=left;spacingLeft=6;overflow=hidden;whiteSpace=wrap;html=1;" vertex="1" parent="6rqnXp5KOdtHk6Dp94yl-1">
          <mxGeometry x="30" width="150" height="30" as="geometry">
            <mxRectangle width="150" height="30" as="alternateBounds" />
          </mxGeometry>
        </mxCell>
        <mxCell id="6rqnXp5KOdtHk6Dp94yl-4" style="shape=tableRow;horizontal=0;startSize=0;swimlaneHead=0;swimlaneBody=0;fillColor=none;collapsible=0;dropTarget=0;points=[[0,0.5],[1,0.5]];portConstraint=eastwest;top=0;left=0;right=0;bottom=0;" vertex="1" parent="zdyOHas0w8yIAXeVmpGB-195">
          <mxGeometry y="180" width="180" height="30" as="geometry" />
        </mxCell>
        <mxCell id="6rqnXp5KOdtHk6Dp94yl-5" value="5" style="shape=partialRectangle;connectable=0;fillColor=none;top=0;left=0;bottom=0;right=0;editable=1;overflow=hidden;whiteSpace=wrap;html=1;" vertex="1" parent="6rqnXp5KOdtHk6Dp94yl-4">
          <mxGeometry width="30" height="30" as="geometry">
            <mxRectangle width="30" height="30" as="alternateBounds" />
          </mxGeometry>
        </mxCell>
        <mxCell id="6rqnXp5KOdtHk6Dp94yl-6" value="Cost DECIMAL" style="shape=partialRectangle;connectable=0;fillColor=none;top=0;left=0;bottom=0;right=0;align=left;spacingLeft=6;overflow=hidden;whiteSpace=wrap;html=1;" vertex="1" parent="6rqnXp5KOdtHk6Dp94yl-4">
          <mxGeometry x="30" width="150" height="30" as="geometry">
            <mxRectangle width="150" height="30" as="alternateBounds" />
          </mxGeometry>
        </mxCell>
        <mxCell id="6rqnXp5KOdtHk6Dp94yl-7" value="Menu" style="shape=table;startSize=30;container=1;collapsible=1;childLayout=tableLayout;fixedRows=1;rowLines=0;fontStyle=1;align=center;resizeLast=1;html=1;" vertex="1" parent="1">
          <mxGeometry x="625" y="498" width="189" height="146" as="geometry" />
        </mxCell>
        <mxCell id="6rqnXp5KOdtHk6Dp94yl-8" value="" style="shape=tableRow;horizontal=0;startSize=0;swimlaneHead=0;swimlaneBody=0;fillColor=none;collapsible=0;dropTarget=0;points=[[0,0.5],[1,0.5]];portConstraint=eastwest;top=0;left=0;right=0;bottom=1;" vertex="1" parent="6rqnXp5KOdtHk6Dp94yl-7">
          <mxGeometry y="30" width="189" height="30" as="geometry" />
        </mxCell>
        <mxCell id="6rqnXp5KOdtHk6Dp94yl-9" value="PK" style="shape=partialRectangle;connectable=0;fillColor=none;top=0;left=0;bottom=0;right=0;fontStyle=1;overflow=hidden;whiteSpace=wrap;html=1;" vertex="1" parent="6rqnXp5KOdtHk6Dp94yl-8">
          <mxGeometry width="39.95001220703125" height="30" as="geometry">
            <mxRectangle width="39.95001220703125" height="30" as="alternateBounds" />
          </mxGeometry>
        </mxCell>
        <mxCell id="6rqnXp5KOdtHk6Dp94yl-10" value="MenuID INT PK AI" style="shape=partialRectangle;connectable=0;fillColor=none;top=0;left=0;bottom=0;right=0;align=left;spacingLeft=6;fontStyle=1;overflow=hidden;whiteSpace=wrap;html=1;" vertex="1" parent="6rqnXp5KOdtHk6Dp94yl-8">
          <mxGeometry x="39.95001220703125" width="149.04998779296875" height="30" as="geometry">
            <mxRectangle width="149.04998779296875" height="30" as="alternateBounds" />
          </mxGeometry>
        </mxCell>
        <mxCell id="6rqnXp5KOdtHk6Dp94yl-11" value="" style="shape=tableRow;horizontal=0;startSize=0;swimlaneHead=0;swimlaneBody=0;fillColor=none;collapsible=0;dropTarget=0;points=[[0,0.5],[1,0.5]];portConstraint=eastwest;top=0;left=0;right=0;bottom=0;" vertex="1" parent="6rqnXp5KOdtHk6Dp94yl-7">
          <mxGeometry y="60" width="189" height="30" as="geometry" />
        </mxCell>
        <mxCell id="6rqnXp5KOdtHk6Dp94yl-12" value="1" style="shape=partialRectangle;connectable=0;fillColor=none;top=0;left=0;bottom=0;right=0;editable=1;overflow=hidden;whiteSpace=wrap;html=1;" vertex="1" parent="6rqnXp5KOdtHk6Dp94yl-11">
          <mxGeometry width="39.95001220703125" height="30" as="geometry">
            <mxRectangle width="39.95001220703125" height="30" as="alternateBounds" />
          </mxGeometry>
        </mxCell>
        <mxCell id="6rqnXp5KOdtHk6Dp94yl-13" value="Name ENUM" style="shape=partialRectangle;connectable=0;fillColor=none;top=0;left=0;bottom=0;right=0;align=left;spacingLeft=6;overflow=hidden;whiteSpace=wrap;html=1;" vertex="1" parent="6rqnXp5KOdtHk6Dp94yl-11">
          <mxGeometry x="39.95001220703125" width="149.04998779296875" height="30" as="geometry">
            <mxRectangle width="149.04998779296875" height="30" as="alternateBounds" />
          </mxGeometry>
        </mxCell>
        <mxCell id="6rqnXp5KOdtHk6Dp94yl-14" value="" style="shape=tableRow;horizontal=0;startSize=0;swimlaneHead=0;swimlaneBody=0;fillColor=none;collapsible=0;dropTarget=0;points=[[0,0.5],[1,0.5]];portConstraint=eastwest;top=0;left=0;right=0;bottom=0;" vertex="1" parent="6rqnXp5KOdtHk6Dp94yl-7">
          <mxGeometry y="90" width="189" height="30" as="geometry" />
        </mxCell>
        <mxCell id="6rqnXp5KOdtHk6Dp94yl-15" value="2" style="shape=partialRectangle;connectable=0;fillColor=none;top=0;left=0;bottom=0;right=0;editable=1;overflow=hidden;whiteSpace=wrap;html=1;" vertex="1" parent="6rqnXp5KOdtHk6Dp94yl-14">
          <mxGeometry width="39.95001220703125" height="30" as="geometry">
            <mxRectangle width="39.95001220703125" height="30" as="alternateBounds" />
          </mxGeometry>
        </mxCell>
        <mxCell id="6rqnXp5KOdtHk6Dp94yl-16" value="Price DECIMAL" style="shape=partialRectangle;connectable=0;fillColor=none;top=0;left=0;bottom=0;right=0;align=left;spacingLeft=6;overflow=hidden;whiteSpace=wrap;html=1;" vertex="1" parent="6rqnXp5KOdtHk6Dp94yl-14">
          <mxGeometry x="39.95001220703125" width="149.04998779296875" height="30" as="geometry">
            <mxRectangle width="149.04998779296875" height="30" as="alternateBounds" />
          </mxGeometry>
        </mxCell>
        <mxCell id="6rqnXp5KOdtHk6Dp94yl-17" value="" style="shape=tableRow;horizontal=0;startSize=0;swimlaneHead=0;swimlaneBody=0;fillColor=none;collapsible=0;dropTarget=0;points=[[0,0.5],[1,0.5]];portConstraint=eastwest;top=0;left=0;right=0;bottom=0;" vertex="1" parent="6rqnXp5KOdtHk6Dp94yl-7">
          <mxGeometry y="120" width="189" height="26" as="geometry" />
        </mxCell>
        <mxCell id="6rqnXp5KOdtHk6Dp94yl-18" value="3" style="shape=partialRectangle;connectable=0;fillColor=none;top=0;left=0;bottom=0;right=0;editable=1;overflow=hidden;whiteSpace=wrap;html=1;" vertex="1" parent="6rqnXp5KOdtHk6Dp94yl-17">
          <mxGeometry width="39.95001220703125" height="26" as="geometry">
            <mxRectangle width="39.95001220703125" height="26" as="alternateBounds" />
          </mxGeometry>
        </mxCell>
        <mxCell id="6rqnXp5KOdtHk6Dp94yl-19" value="Description TEXT" style="shape=partialRectangle;connectable=0;fillColor=none;top=0;left=0;bottom=0;right=0;align=left;spacingLeft=6;overflow=hidden;whiteSpace=wrap;html=1;" vertex="1" parent="6rqnXp5KOdtHk6Dp94yl-17">
          <mxGeometry x="39.95001220703125" width="149.04998779296875" height="26" as="geometry">
            <mxRectangle width="149.04998779296875" height="26" as="alternateBounds" />
          </mxGeometry>
        </mxCell>
        <mxCell id="6rqnXp5KOdtHk6Dp94yl-39" value="Members" style="shape=table;startSize=30;container=1;collapsible=1;childLayout=tableLayout;fixedRows=1;rowLines=0;fontStyle=1;align=center;resizeLast=1;html=1;" vertex="1" parent="1">
          <mxGeometry x="333" y="537" width="189" height="120" as="geometry" />
        </mxCell>
        <mxCell id="6rqnXp5KOdtHk6Dp94yl-40" value="" style="shape=tableRow;horizontal=0;startSize=0;swimlaneHead=0;swimlaneBody=0;fillColor=none;collapsible=0;dropTarget=0;points=[[0,0.5],[1,0.5]];portConstraint=eastwest;top=0;left=0;right=0;bottom=1;" vertex="1" parent="6rqnXp5KOdtHk6Dp94yl-39">
          <mxGeometry y="30" width="189" height="30" as="geometry" />
        </mxCell>
        <mxCell id="6rqnXp5KOdtHk6Dp94yl-41" value="PK" style="shape=partialRectangle;connectable=0;fillColor=none;top=0;left=0;bottom=0;right=0;fontStyle=1;overflow=hidden;whiteSpace=wrap;html=1;" vertex="1" parent="6rqnXp5KOdtHk6Dp94yl-40">
          <mxGeometry width="39.95001220703125" height="30" as="geometry">
            <mxRectangle width="39.95001220703125" height="30" as="alternateBounds" />
          </mxGeometry>
        </mxCell>
        <mxCell id="6rqnXp5KOdtHk6Dp94yl-42" value="MemberID INT PK AI" style="shape=partialRectangle;connectable=0;fillColor=none;top=0;left=0;bottom=0;right=0;align=left;spacingLeft=6;fontStyle=1;overflow=hidden;whiteSpace=wrap;html=1;" vertex="1" parent="6rqnXp5KOdtHk6Dp94yl-40">
          <mxGeometry x="39.95001220703125" width="149.04998779296875" height="30" as="geometry">
            <mxRectangle width="149.04998779296875" height="30" as="alternateBounds" />
          </mxGeometry>
        </mxCell>
        <mxCell id="6rqnXp5KOdtHk6Dp94yl-43" value="" style="shape=tableRow;horizontal=0;startSize=0;swimlaneHead=0;swimlaneBody=0;fillColor=none;collapsible=0;dropTarget=0;points=[[0,0.5],[1,0.5]];portConstraint=eastwest;top=0;left=0;right=0;bottom=0;" vertex="1" parent="6rqnXp5KOdtHk6Dp94yl-39">
          <mxGeometry y="60" width="189" height="30" as="geometry" />
        </mxCell>
        <mxCell id="6rqnXp5KOdtHk6Dp94yl-44" value="1" style="shape=partialRectangle;connectable=0;fillColor=none;top=0;left=0;bottom=0;right=0;editable=1;overflow=hidden;whiteSpace=wrap;html=1;" vertex="1" parent="6rqnXp5KOdtHk6Dp94yl-43">
          <mxGeometry width="39.95001220703125" height="30" as="geometry">
            <mxRectangle width="39.95001220703125" height="30" as="alternateBounds" />
          </mxGeometry>
        </mxCell>
        <mxCell id="6rqnXp5KOdtHk6Dp94yl-45" value="MembName VARCHAR" style="shape=partialRectangle;connectable=0;fillColor=none;top=0;left=0;bottom=0;right=0;align=left;spacingLeft=6;overflow=hidden;whiteSpace=wrap;html=1;" vertex="1" parent="6rqnXp5KOdtHk6Dp94yl-43">
          <mxGeometry x="39.95001220703125" width="149.04998779296875" height="30" as="geometry">
            <mxRectangle width="149.04998779296875" height="30" as="alternateBounds" />
          </mxGeometry>
        </mxCell>
        <mxCell id="6rqnXp5KOdtHk6Dp94yl-46" value="" style="shape=tableRow;horizontal=0;startSize=0;swimlaneHead=0;swimlaneBody=0;fillColor=none;collapsible=0;dropTarget=0;points=[[0,0.5],[1,0.5]];portConstraint=eastwest;top=0;left=0;right=0;bottom=0;" vertex="1" parent="6rqnXp5KOdtHk6Dp94yl-39">
          <mxGeometry y="90" width="189" height="30" as="geometry" />
        </mxCell>
        <mxCell id="6rqnXp5KOdtHk6Dp94yl-47" value="2" style="shape=partialRectangle;connectable=0;fillColor=none;top=0;left=0;bottom=0;right=0;editable=1;overflow=hidden;whiteSpace=wrap;html=1;" vertex="1" parent="6rqnXp5KOdtHk6Dp94yl-46">
          <mxGeometry width="39.95001220703125" height="30" as="geometry">
            <mxRectangle width="39.95001220703125" height="30" as="alternateBounds" />
          </mxGeometry>
        </mxCell>
        <mxCell id="6rqnXp5KOdtHk6Dp94yl-48" value="MembLV ENUM" style="shape=partialRectangle;connectable=0;fillColor=none;top=0;left=0;bottom=0;right=0;align=left;spacingLeft=6;overflow=hidden;whiteSpace=wrap;html=1;" vertex="1" parent="6rqnXp5KOdtHk6Dp94yl-46">
          <mxGeometry x="39.95001220703125" width="149.04998779296875" height="30" as="geometry">
            <mxRectangle width="149.04998779296875" height="30" as="alternateBounds" />
          </mxGeometry>
        </mxCell>
        <mxCell id="6rqnXp5KOdtHk6Dp94yl-53" value="LoyalCustomers" style="shape=table;startSize=30;container=1;collapsible=1;childLayout=tableLayout;fixedRows=1;rowLines=0;fontStyle=1;align=center;resizeLast=1;html=1;" vertex="1" parent="1">
          <mxGeometry x="328.5" y="693" width="189" height="150" as="geometry" />
        </mxCell>
        <mxCell id="6rqnXp5KOdtHk6Dp94yl-54" value="" style="shape=tableRow;horizontal=0;startSize=0;swimlaneHead=0;swimlaneBody=0;fillColor=none;collapsible=0;dropTarget=0;points=[[0,0.5],[1,0.5]];portConstraint=eastwest;top=0;left=0;right=0;bottom=1;" vertex="1" parent="6rqnXp5KOdtHk6Dp94yl-53">
          <mxGeometry y="30" width="189" height="30" as="geometry" />
        </mxCell>
        <mxCell id="6rqnXp5KOdtHk6Dp94yl-55" value="FK" style="shape=partialRectangle;connectable=0;fillColor=none;top=0;left=0;bottom=0;right=0;fontStyle=1;overflow=hidden;whiteSpace=wrap;html=1;" vertex="1" parent="6rqnXp5KOdtHk6Dp94yl-54">
          <mxGeometry width="39.95001220703125" height="30" as="geometry">
            <mxRectangle width="39.95001220703125" height="30" as="alternateBounds" />
          </mxGeometry>
        </mxCell>
        <mxCell id="6rqnXp5KOdtHk6Dp94yl-56" value="MemberID PK INT AI" style="shape=partialRectangle;connectable=0;fillColor=none;top=0;left=0;bottom=0;right=0;align=left;spacingLeft=6;fontStyle=1;overflow=hidden;whiteSpace=wrap;html=1;" vertex="1" parent="6rqnXp5KOdtHk6Dp94yl-54">
          <mxGeometry x="39.95001220703125" width="149.04998779296875" height="30" as="geometry">
            <mxRectangle width="149.04998779296875" height="30" as="alternateBounds" />
          </mxGeometry>
        </mxCell>
        <mxCell id="6rqnXp5KOdtHk6Dp94yl-57" value="" style="shape=tableRow;horizontal=0;startSize=0;swimlaneHead=0;swimlaneBody=0;fillColor=none;collapsible=0;dropTarget=0;points=[[0,0.5],[1,0.5]];portConstraint=eastwest;top=0;left=0;right=0;bottom=0;" vertex="1" parent="6rqnXp5KOdtHk6Dp94yl-53">
          <mxGeometry y="60" width="189" height="30" as="geometry" />
        </mxCell>
        <mxCell id="6rqnXp5KOdtHk6Dp94yl-58" value="1" style="shape=partialRectangle;connectable=0;fillColor=none;top=0;left=0;bottom=0;right=0;editable=1;overflow=hidden;whiteSpace=wrap;html=1;" vertex="1" parent="6rqnXp5KOdtHk6Dp94yl-57">
          <mxGeometry width="39.95001220703125" height="30" as="geometry">
            <mxRectangle width="39.95001220703125" height="30" as="alternateBounds" />
          </mxGeometry>
        </mxCell>
        <mxCell id="6rqnXp5KOdtHk6Dp94yl-59" value="MembName VARCHAR" style="shape=partialRectangle;connectable=0;fillColor=none;top=0;left=0;bottom=0;right=0;align=left;spacingLeft=6;overflow=hidden;whiteSpace=wrap;html=1;" vertex="1" parent="6rqnXp5KOdtHk6Dp94yl-57">
          <mxGeometry x="39.95001220703125" width="149.04998779296875" height="30" as="geometry">
            <mxRectangle width="149.04998779296875" height="30" as="alternateBounds" />
          </mxGeometry>
        </mxCell>
        <mxCell id="6rqnXp5KOdtHk6Dp94yl-60" value="" style="shape=tableRow;horizontal=0;startSize=0;swimlaneHead=0;swimlaneBody=0;fillColor=none;collapsible=0;dropTarget=0;points=[[0,0.5],[1,0.5]];portConstraint=eastwest;top=0;left=0;right=0;bottom=0;" vertex="1" parent="6rqnXp5KOdtHk6Dp94yl-53">
          <mxGeometry y="90" width="189" height="30" as="geometry" />
        </mxCell>
        <mxCell id="6rqnXp5KOdtHk6Dp94yl-61" value="2" style="shape=partialRectangle;connectable=0;fillColor=none;top=0;left=0;bottom=0;right=0;editable=1;overflow=hidden;whiteSpace=wrap;html=1;" vertex="1" parent="6rqnXp5KOdtHk6Dp94yl-60">
          <mxGeometry width="39.95001220703125" height="30" as="geometry">
            <mxRectangle width="39.95001220703125" height="30" as="alternateBounds" />
          </mxGeometry>
        </mxCell>
        <mxCell id="6rqnXp5KOdtHk6Dp94yl-62" value="MembLV ENUM" style="shape=partialRectangle;connectable=0;fillColor=none;top=0;left=0;bottom=0;right=0;align=left;spacingLeft=6;overflow=hidden;whiteSpace=wrap;html=1;" vertex="1" parent="6rqnXp5KOdtHk6Dp94yl-60">
          <mxGeometry x="39.95001220703125" width="149.04998779296875" height="30" as="geometry">
            <mxRectangle width="149.04998779296875" height="30" as="alternateBounds" />
          </mxGeometry>
        </mxCell>
        <mxCell id="6rqnXp5KOdtHk6Dp94yl-63" style="shape=tableRow;horizontal=0;startSize=0;swimlaneHead=0;swimlaneBody=0;fillColor=none;collapsible=0;dropTarget=0;points=[[0,0.5],[1,0.5]];portConstraint=eastwest;top=0;left=0;right=0;bottom=0;" vertex="1" parent="6rqnXp5KOdtHk6Dp94yl-53">
          <mxGeometry y="120" width="189" height="30" as="geometry" />
        </mxCell>
        <mxCell id="6rqnXp5KOdtHk6Dp94yl-64" value="3" style="shape=partialRectangle;connectable=0;fillColor=none;top=0;left=0;bottom=0;right=0;editable=1;overflow=hidden;whiteSpace=wrap;html=1;" vertex="1" parent="6rqnXp5KOdtHk6Dp94yl-63">
          <mxGeometry width="39.95001220703125" height="30" as="geometry">
            <mxRectangle width="39.95001220703125" height="30" as="alternateBounds" />
          </mxGeometry>
        </mxCell>
        <mxCell id="6rqnXp5KOdtHk6Dp94yl-65" value="MembJoin DATETIME" style="shape=partialRectangle;connectable=0;fillColor=none;top=0;left=0;bottom=0;right=0;align=left;spacingLeft=6;overflow=hidden;whiteSpace=wrap;html=1;" vertex="1" parent="6rqnXp5KOdtHk6Dp94yl-63">
          <mxGeometry x="39.95001220703125" width="149.04998779296875" height="30" as="geometry">
            <mxRectangle width="149.04998779296875" height="30" as="alternateBounds" />
          </mxGeometry>
        </mxCell>
        <mxCell id="6rqnXp5KOdtHk6Dp94yl-72" value="" style="edgeStyle=entityRelationEdgeStyle;fontSize=12;html=1;endArrow=ERoneToMany;rounded=0;exitX=1;exitY=0.5;exitDx=0;exitDy=0;" edge="1" parent="1" source="zdyOHas0w8yIAXeVmpGB-168" target="zdyOHas0w8yIAXeVmpGB-199">
          <mxGeometry width="100" height="100" relative="1" as="geometry">
            <mxPoint x="313" y="512" as="sourcePoint" />
            <mxPoint x="423" y="570" as="targetPoint" />
            <Array as="points">
              <mxPoint x="314" y="466" />
            </Array>
          </mxGeometry>
        </mxCell>
        <mxCell id="6rqnXp5KOdtHk6Dp94yl-76" style="edgeStyle=orthogonalEdgeStyle;rounded=0;orthogonalLoop=1;jettySize=auto;html=1;exitX=1;exitY=0.5;exitDx=0;exitDy=0;entryX=0;entryY=0.5;entryDx=0;entryDy=0;" edge="1" parent="1" source="zdyOHas0w8yIAXeVmpGB-168" target="6rqnXp5KOdtHk6Dp94yl-43">
          <mxGeometry relative="1" as="geometry" />
        </mxCell>
        <mxCell id="6rqnXp5KOdtHk6Dp94yl-77" value="" style="edgeStyle=entityRelationEdgeStyle;fontSize=12;html=1;endArrow=ERoneToMany;rounded=0;" edge="1" parent="1" source="zdyOHas0w8yIAXeVmpGB-202" target="zdyOHas0w8yIAXeVmpGB-132">
          <mxGeometry width="100" height="100" relative="1" as="geometry">
            <mxPoint x="544" y="655" as="sourcePoint" />
            <mxPoint x="644" y="555" as="targetPoint" />
          </mxGeometry>
        </mxCell>
        <mxCell id="6rqnXp5KOdtHk6Dp94yl-79" value="" style="edgeStyle=entityRelationEdgeStyle;fontSize=12;html=1;endArrow=ERoneToMany;rounded=0;exitX=1;exitY=0.5;exitDx=0;exitDy=0;" edge="1" parent="1" source="zdyOHas0w8yIAXeVmpGB-202" target="zdyOHas0w8yIAXeVmpGB-135">
          <mxGeometry width="100" height="100" relative="1" as="geometry">
            <mxPoint x="541" y="482" as="sourcePoint" />
            <mxPoint x="597" y="523" as="targetPoint" />
          </mxGeometry>
        </mxCell>
        <mxCell id="6rqnXp5KOdtHk6Dp94yl-80" value="" style="edgeStyle=entityRelationEdgeStyle;fontSize=12;html=1;endArrow=ERoneToMany;rounded=0;" edge="1" parent="1" source="zdyOHas0w8yIAXeVmpGB-202" target="zdyOHas0w8yIAXeVmpGB-138">
          <mxGeometry width="100" height="100" relative="1" as="geometry">
            <mxPoint x="551" y="492" as="sourcePoint" />
            <mxPoint x="655" y="467" as="targetPoint" />
          </mxGeometry>
        </mxCell>
        <mxCell id="6rqnXp5KOdtHk6Dp94yl-81" value="" style="edgeStyle=entityRelationEdgeStyle;fontSize=12;html=1;endArrow=ERoneToMany;rounded=0;" edge="1" parent="1" source="zdyOHas0w8yIAXeVmpGB-202" target="zdyOHas0w8yIAXeVmpGB-161">
          <mxGeometry width="100" height="100" relative="1" as="geometry">
            <mxPoint x="561" y="502" as="sourcePoint" />
            <mxPoint x="665" y="477" as="targetPoint" />
          </mxGeometry>
        </mxCell>
        <mxCell id="6rqnXp5KOdtHk6Dp94yl-82" value="" style="edgeStyle=entityRelationEdgeStyle;fontSize=12;html=1;endArrow=ERmandOne;startArrow=ERmandOne;rounded=0;" edge="1" parent="1" source="6rqnXp5KOdtHk6Dp94yl-1" target="6rqnXp5KOdtHk6Dp94yl-11">
          <mxGeometry width="100" height="100" relative="1" as="geometry">
            <mxPoint x="433" y="684" as="sourcePoint" />
            <mxPoint x="697" y="587" as="targetPoint" />
          </mxGeometry>
        </mxCell>
        <mxCell id="6rqnXp5KOdtHk6Dp94yl-83" value="" style="edgeStyle=entityRelationEdgeStyle;fontSize=12;html=1;endArrow=ERmandOne;startArrow=ERmandOne;rounded=0;" edge="1" parent="1" source="6rqnXp5KOdtHk6Dp94yl-4" target="6rqnXp5KOdtHk6Dp94yl-14">
          <mxGeometry width="100" height="100" relative="1" as="geometry">
            <mxPoint x="433" y="684" as="sourcePoint" />
            <mxPoint x="666" y="724" as="targetPoint" />
          </mxGeometry>
        </mxCell>
      </root>
    </mxGraphModel>
  </diagram>
</mxfile>
